<svg width="20" height="20" viewBox="0 0 20 20" fill="none" xmlns="http://www.w3.org/2000/svg">
  <g clipPath="url(#clip0_993_123)">
    <path d="M19.805 10.2305C19.805 9.55078 19.7483 8.86719 19.6267 8.19922H10.2V12.0508H15.6483C15.4175 13.3008 14.6683 14.3672 13.605 15.0508V17.3008H16.805C18.6725 15.6094 19.805 13.1875 19.805 10.2305Z" fill="#4285F4"/>
    <path d="M10.2 20C12.755 20 14.8775 19.1484 16.405 17.3008L13.605 15.0508C12.755 15.6508 11.6025 16.0031 10.2 16.0031C7.735 16.0031 5.6525 14.2953 4.8775 12.0508H1.97253V14.3672C3.49253 17.5484 6.63503 20 10.2 20Z" fill="#34A853"/>
    <path d="M4.8775 12.0508C4.4775 10.8008 4.4775 9.19922 4.8775 7.94922V5.63281H1.9725C0.9275 7.64844 0.9275 10.3516 1.9725 12.3672L4.8775 12.0508Z" fill="#FBBC05"/>
    <path d="M10.2 3.99687C11.6925 3.99687 13.045 4.50781 14.08 5.49219L16.48 3.14062C14.8725 1.60156 12.755 -0.003125 10.2 -0.003125C6.63503 -0.003125 3.49253 2.45156 1.97253 5.63281L4.87753 7.94922C5.65253 5.70469 7.73503 3.99687 10.2 3.99687Z" fill="#EA4335"/>
  </g>
  <defs>
    <clipPath id="clip0_993_123">
      <rect width="20" height="20" fill="white"/>
    </clipPath>
  </defs>
</svg> 